<svg width="60" height="60" viewBox="0 0 60 60" fill="none" xmlns="http://www.w3.org/2000/svg">
<g clip-path="url(#clip0_329_220)">
<g opacity="0.15">
<path d="M12.398 50.3721C11.9758 42.1556 16.321 36.9053 18.8007 39.1894C18.8775 39.2584 18.9696 39.3657 19.0387 39.4423C15.085 42.7381 15.3537 51.2765 18.0944 57.1936C17.3267 58.8415 16.8738 59.3627 16.0754 59.424C14.3787 59.2171 12.6283 54.9019 12.398 50.3721Z" fill="#3F37C9"/>
<path d="M18.3477 56.5575C18.3861 56.4348 22.3705 44.3937 19.0387 39.4424C23 36.913 25.6256 45.4591 23.7217 54.6796C23.2073 57.209 22.24 60.1828 20.6509 59.9912C19.7219 59.7153 19.1154 59.0102 18.1328 57.1936L18.3861 56.5575" fill="#3F37C9"/>
<path d="M33.1568 3.06604C35.6058 1.85502 41.64 0.222459 41.0872 2.03131C34.3237 3.4646 30.109 7.48086 31.4064 9.76492C30.8265 9.94928 30.2174 10.0246 29.61 9.9872C26.946 9.51965 27.7521 6.53045 31.1454 4.17741C31.7884 3.75948 32.4606 3.38807 33.1568 3.06604Z" fill="#3F37C9"/>
<path d="M41.6785 1.92415C43.3368 1.65589 47.0064 1.26499 45.3712 3.45708C43.9202 5.37324 36.9264 10.7078 32.5965 10.3552C32.1389 10.3235 31.7119 10.1144 31.4065 9.77273C36.5195 8.00987 40.7265 2.79026 41.0874 2.03912L41.6785 1.93182" fill="#3F37C9"/>
<path d="M38.3848 27.4625C38.6623 27.0014 39.0401 26.6084 39.4903 26.3128C40.258 29.0721 44.2732 30.9116 45.9621 31.5248C46.7924 31.825 47.638 32.0809 48.4956 32.2912C50.9715 32.9999 53.5701 33.1749 56.1189 32.8047C59.1898 38.7295 54.7754 40.7376 48.8641 38.8291C48.3958 38.6835 47.7816 38.4382 47.3286 38.262C41.5631 35.7939 36.5807 30.8503 38.3925 27.4242" fill="#3F37C9"/>
<path d="M39.9743 23.8601C43.928 18.6405 59.4511 22.7871 59.9885 29.2254C60.2112 31.908 57.125 32.6285 56.15 32.8661C54.2452 29.8708 51.3995 27.5904 48.0583 26.3818C44.6881 25.1095 41.4023 25.0865 39.483 26.3128C39.3674 25.8941 39.3517 25.4541 39.437 25.0282C39.5223 24.6023 39.7063 24.2023 39.9743 23.8601Z" fill="#3F37C9"/>
<path d="M1.35839 30.0455C1.82102 28.7792 2.39388 27.5559 3.07038 26.3895C3.14715 27.0793 3.50798 27.2172 4.6058 26.995C4.97476 26.8976 5.33646 26.7747 5.68828 26.6271C7.70352 25.7787 9.49917 24.4839 10.9394 22.8407C11.1006 26.3281 5.12785 31.3561 2.60976 32.8661C1.36607 33.5559 0.222177 33.9928 1.0206 31.1185C1.11272 30.7966 1.25091 30.3521 1.36607 30.0455" fill="#3F37C9"/>
<path d="M4.24491 23.3467C8.61318 15.4751 11.7762 16.6094 12.3596 18.3953C12.5899 19.1081 12.7128 20.6257 10.9317 22.8255C10.8165 21.3768 9.51141 20.8097 7.86083 21.4765C5.37345 22.5419 3.68448 25.3395 3.07031 26.3895C3.07031 26.0063 3.15476 25.3625 4.26794 23.3237" fill="#3F37C9"/>
<path d="M1.48133 44.984C1.30476 36.4149 8.0299 30.015 10.2256 31.9541C10.4721 32.2507 10.6535 32.5956 10.7579 32.9667C10.8624 33.3377 10.8877 33.7265 10.832 34.1079C10.6943 34.0924 10.5552 34.0924 10.4175 34.1079C8.02222 34.3761 3.50809 39.5268 3.84588 48.0268C3.68103 48.1727 3.49779 48.2964 3.3008 48.3947C1.69629 48.9696 1.50436 45.9344 1.48133 44.9916" fill="#3F37C9"/>
<path d="M3.90727 48.801L3.84585 48.0345C5.79583 46.1567 10.5326 37.9172 10.832 34.1309C15.1158 35.0889 8.10664 51.8975 6.29485 52.8862L6.10292 52.9629C4.7671 53.2388 4.09919 50.4948 3.90727 48.8316" fill="#3F37C9"/>
<path d="M39.0993 11.3974C43.3141 6.3234 55.3211 5.36533 55.6358 8.91405C55.6044 9.57787 55.3314 10.2074 54.8681 10.6846C47.951 9.19764 40.6885 12.2635 39.583 15.1147C37.157 14.0417 38.6003 11.9952 39.0993 11.3974Z" fill="#3F37C9"/>
<path d="M39.6442 15.1378C39.8051 15.1999 39.9691 15.2536 40.1355 15.2988C43.7668 16.1956 51.7357 14.0801 54.9063 10.7C59.0673 11.7731 59.8273 14.2641 56.5953 16.2569C53.9313 17.9048 47.3827 19.4837 42.0625 18.1807C41.2103 17.8971 38.9917 17.1536 39.5828 15.1148H39.6442" fill="#3F37C9"/>
<path d="M27.3455 39.0439C27.7908 37.8252 28.7351 36.3996 30.6697 36.4992C28.8963 40.4695 32.5429 48.6553 37.6175 52.1198C36.6041 56.2663 34.7847 56.6496 33.4335 56.2357C29.2034 54.4728 25.503 43.9723 27.3379 39.0209" fill="#3F37C9"/>
<path d="M30.7618 36.3151C33.2416 31.6627 41.0645 36.7443 43.2525 44.4243C44.6804 49.4676 43.0299 54.189 38.746 52.7174C38.3511 52.5557 37.973 52.3555 37.6175 52.1196C38.8305 45.0451 35.1224 37.6564 31.2455 36.5757C31.0682 36.5334 30.8888 36.5002 30.7081 36.4761C30.7161 36.4132 30.7316 36.3514 30.7542 36.2921" fill="#3F37C9"/>
<path d="M17.0963 9.01382C17.2114 8.92951 19.9291 6.94437 21.1114 6.5918C16.0752 10.0562 16.8583 12.3863 18.7085 12.7235C18.9101 12.7445 19.1133 12.7445 19.315 12.7235L19.7295 12.6698C18.7341 13.8776 17.3408 14.6927 15.7988 14.9692C13.1119 15.1915 12.4056 13.6509 14.2634 11.5355C15.1247 10.5994 16.0848 9.75909 17.127 9.02915" fill="#3F37C9"/>
<path d="M22.7316 5.61068C23.952 4.91272 25.2376 4.33514 26.5701 3.88614C27.2073 3.71752 27.4914 3.74818 27.2841 4.39967C27.2841 4.46865 24.3668 11.6581 19.7989 12.6775C21.8257 10.3781 22.8698 6.34649 21.3344 6.54577L21.1348 6.59175C21.6107 6.28517 22.0637 5.99391 22.7546 5.61068" fill="#3F37C9"/>
</g>
<path d="M11.6462 49.1535C11.224 40.9063 15.5692 35.6867 18.0489 37.9631L18.2946 38.216C14.3332 41.5118 14.5865 50.0579 17.3426 55.952C16.5749 57.6076 16.1219 58.1288 15.3235 58.1901C13.6346 57.9755 11.8765 53.6603 11.6462 49.1381" fill="#3F37C9"/>
<path d="M17.5955 55.3313C17.6416 55.2163 21.6183 43.1675 18.2942 38.2161C22.2555 35.6868 24.8811 44.2329 22.9772 53.4611C22.4551 55.9904 21.4878 58.9643 19.8603 58.7727C18.9314 58.4891 18.3249 57.7839 17.3422 55.9674C17.419 55.7758 17.5264 55.5229 17.5955 55.3313Z" fill="#3F37C9"/>
<path d="M32.4127 1.81676C34.8617 0.636408 40.8959 -1.00382 40.3355 0.80503C33.572 2.24598 29.3649 6.26225 30.6623 8.54631C30.0818 8.72721 29.4728 8.79996 28.8659 8.76092C26.2019 8.29337 27.008 5.31183 30.4013 2.95879C31.0355 2.53473 31.6972 2.15321 32.382 1.81676" fill="#3F37C9"/>
<path d="M40.9341 0.697707C42.5846 0.429445 46.262 0.0462132 44.6191 2.23063C43.1681 4.14679 36.1743 9.47371 31.852 9.1288C31.3947 9.09624 30.9679 8.88734 30.6621 8.54629C35.7674 6.78342 39.9821 1.53315 40.3352 0.805011L40.9341 0.697707Z" fill="#3F37C9"/>
<path d="M37.6174 26.2439C37.8903 25.7818 38.2659 25.3885 38.7152 25.0942C39.4829 27.8535 43.5057 29.6547 45.187 30.3062C46.019 30.6196 46.8673 30.8882 47.7281 31.111C50.2045 31.8177 52.8032 31.9902 55.3515 31.6168C58.4223 37.5493 54.008 39.5574 48.089 37.6489C47.6207 37.4956 47.0065 37.258 46.5535 37.0741C40.788 34.6137 35.8056 29.67 37.6251 26.2439" fill="#3F37C9"/>
<path d="M39.2299 22.6414C43.176 17.4218 58.6991 21.5684 59.2365 28.0067C59.4591 30.6893 56.3806 31.4021 55.3979 31.6397C53.4929 28.6638 50.6603 26.3961 47.3369 25.1861C43.9744 23.9138 40.6886 23.8831 38.7616 25.1171C38.6477 24.6977 38.6336 24.2576 38.7202 23.8318C38.8068 23.406 38.9919 23.0062 39.2606 22.6644" fill="#3F37C9"/>
<path d="M0.606215 28.8191C1.0682 27.5551 1.63575 26.3322 2.30286 25.1631C2.37195 25.8529 2.73277 25.9985 3.83828 25.7686C4.21016 25.6758 4.57456 25.5554 4.92843 25.4083C6.94092 24.5551 8.73555 23.2611 10.1796 21.622C10.3331 25.1018 4.36032 30.1297 1.84223 31.6397C0.613893 32.3372 -0.537673 32.774 0.268423 29.8921C0.360548 29.5626 0.498736 29.1257 0.606215 28.8114" fill="#3F37C9"/>
<path d="M3.50026 22.1281C7.86085 14.2489 11.0315 15.3909 11.615 17.1921C11.8453 17.8973 11.9604 19.4149 10.187 21.6223C10.0642 20.1737 8.76675 19.6065 7.11617 20.2733C4.60576 21.3234 2.93215 24.1133 2.30263 25.1633C2.30263 24.7801 2.38708 24.1363 3.50026 22.0975" fill="#3F37C9"/>
<path d="M0.767437 43.7654C0.583186 35.1886 7.31601 28.7887 9.51166 30.7355C9.75695 31.0328 9.93756 31.3778 10.042 31.7486C10.1464 32.1194 10.1723 32.5079 10.1182 32.8893C9.97782 32.874 9.83624 32.874 9.69591 32.8893C7.27762 33.1422 2.78652 38.3235 3.07057 46.8006C2.9083 46.944 2.72757 47.0651 2.53317 47.1608C0.94401 47.7433 0.767437 44.7081 0.767437 43.7654Z" fill="#3F37C9"/>
<path d="M3.16275 47.5824L3.09366 46.8159C5.04364 44.9381 9.78809 36.6986 10.0875 32.9123C14.3713 33.8857 7.36213 50.6942 5.55033 51.6446L5.37376 51.7136C4.03794 51.9819 3.37003 49.2456 3.18578 47.5824" fill="#3F37C9"/>
<path d="M38.385 10.1713C42.5614 5.09727 54.5761 4.14686 54.8908 7.66492C54.8571 8.33046 54.5846 8.96166 54.1231 9.44312C47.1677 7.91019 39.8744 11.0374 38.7689 13.8656C36.3506 12.8002 37.7862 10.7538 38.2852 10.1483" fill="#3F37C9"/>
<path d="M38.8995 13.9191C39.1068 13.9958 39.268 14.0418 39.3832 14.0724C43.0145 14.9692 50.9833 12.8537 54.1539 9.47363C58.3456 10.539 59.1134 13.03 55.8506 15.0228C53.1866 16.6631 46.6381 18.242 41.3101 16.939C40.458 16.6631 38.2009 15.9119 38.8304 13.8731H38.8995" fill="#3F37C9"/>
<path d="M26.601 37.8177C27.0463 36.6067 27.9829 35.1811 29.9176 35.273C28.1518 39.2433 31.7908 47.4291 36.85 50.9242C35.8366 55.0631 34.0171 55.4463 32.6736 55.0401C28.4359 53.2696 24.7355 42.7767 26.578 37.8177" fill="#3F37C9"/>
<path d="M30.0095 35.0891C32.4969 30.4443 40.3199 35.5183 42.5002 43.2059C43.9358 48.2493 42.2775 52.9707 38.0014 51.4991C37.6024 51.3393 37.2172 51.147 36.8498 50.9242C38.0628 43.8421 34.3624 36.4611 30.4778 35.3803C30.3031 35.3223 30.1231 35.2812 29.9404 35.2577C29.9521 35.193 29.9675 35.129 29.9865 35.0661" fill="#3F37C9"/>
<path d="M16.344 7.78747C16.4592 7.70316 19.1769 5.71802 20.3592 5.36545C15.3537 8.83753 16.1214 11.1676 17.9639 11.4972C18.1654 11.52 18.3689 11.52 18.5704 11.4972C18.7316 11.4972 18.8007 11.4972 18.985 11.4358C17.9886 12.6426 16.5958 13.4574 15.0543 13.7352C12.3596 13.9575 11.661 12.4169 13.4805 10.3015C14.3413 9.36272 15.3014 8.51981 16.344 7.78747Z" fill="#3F37C9"/>
<path d="M21.9794 4.38439C23.2039 3.6945 24.4887 3.11727 25.818 2.65985C26.4475 2.49123 26.7315 2.52189 26.5319 3.17338C26.5319 3.24236 23.607 10.4395 19.0468 11.4512C21.0735 9.19012 22.1176 5.1202 20.5822 5.31948H20.3826C20.8662 5.01289 21.3115 4.72164 22.0024 4.33841" fill="#3F37C9"/>
</g>
<defs>
<clipPath id="clip0_329_220">
<rect width="60" height="60" fill="white"/>
</clipPath>
</defs>
</svg>
