<svg width="48" height="48" viewBox="0 0 48 48" fill="none" xmlns="http://www.w3.org/2000/svg">
<path d="M24.338 36.507H29.7465V41.9155H24.338V36.507Z" fill="white" fill-opacity="0.05"/>
<path d="M6.08451 36.507H11.493V41.9155H6.08451V36.507Z" fill="white" fill-opacity="0.05"/>
<path d="M0 42.5915H5.40845V48H0V42.5915Z" fill="white" fill-opacity="0.05"/>
<path d="M0 6.08451H5.40845V11.493H0V6.08451Z" fill="white" fill-opacity="0.05"/>
<path d="M6.08451 6.08451H11.493V11.493H6.08451V6.08451Z" fill="white" fill-opacity="0.05"/>
<path d="M12.169 6.08451H17.5775V11.493H12.169V6.08451Z" fill="white" fill-opacity="0.05"/>
<path d="M18.2535 6.08451H23.662V11.493H18.2535V6.08451Z" fill="white" fill-opacity="0.05"/>
<path d="M24.338 6.08451H29.7465V11.493H24.338V6.08451Z" fill="white" fill-opacity="0.05"/>
<path d="M30.4225 6.08451H35.831V11.493H30.4225V6.08451Z" fill="white" fill-opacity="0.05"/>
<path d="M36.507 6.08451H41.9155V11.493H36.507V6.08451Z" fill="white" fill-opacity="0.05"/>
<path d="M42.5915 6.08451H48V11.493H42.5915V6.08451Z" fill="white" fill-opacity="0.05"/>
<path d="M0 0H5.40845V5.40845H0V0Z" fill="white" fill-opacity="0.05"/>
<path d="M6.08451 0H11.493V5.40845H6.08451V0Z" fill="white" fill-opacity="0.05"/>
<path d="M12.169 0H17.5775V5.40845H12.169V0Z" fill="white" fill-opacity="0.05"/>
<path d="M18.2535 0H23.662V5.40845H18.2535V0Z" fill="white" fill-opacity="0.05"/>
<path d="M24.338 0H29.7465V5.40845H24.338V0Z" fill="white" fill-opacity="0.05"/>
<path d="M30.4225 0H35.831V5.40845H30.4225V0Z" fill="white" fill-opacity="0.05"/>
<path d="M36.507 0H41.9155V5.40845H36.507V0Z" fill="white" fill-opacity="0.05"/>
<path d="M42.5915 0H48V5.40845H42.5915V0Z" fill="white" fill-opacity="0.05"/>
<path d="M0 12.169H5.40845V17.5775H0V12.169Z" fill="white" fill-opacity="0.05"/>
<path d="M6.08451 12.169H11.493V17.5775H6.08451V12.169Z" fill="white" fill-opacity="0.05"/>
<path d="M12.169 12.169H17.5775V17.5775H12.169V12.169Z" fill="white" fill-opacity="0.05"/>
<path d="M18.2535 12.169H23.662V17.5775H18.2535V12.169Z" fill="white" fill-opacity="0.05"/>
<path d="M24.338 12.169H29.7465V17.5775H24.338V12.169Z" fill="white" fill-opacity="0.05"/>
<path d="M36.507 12.169H41.9155V17.5775H36.507V12.169Z" fill="white" fill-opacity="0.05"/>
<path d="M42.5915 12.169H48V17.5775H42.5915V12.169Z" fill="white" fill-opacity="0.05"/>
<path d="M6.08451 18.2535H11.493V23.662H6.08451V18.2535Z" fill="white" fill-opacity="0.05"/>
<path d="M12.169 18.2535H17.5775V23.662H12.169V18.2535Z" fill="white" fill-opacity="0.05"/>
<path d="M18.2535 18.2535H23.662V23.662H18.2535V18.2535Z" fill="white" fill-opacity="0.05"/>
<path d="M24.338 18.2535H29.7465V23.662H24.338V18.2535Z" fill="white" fill-opacity="0.05"/>
<path d="M30.4225 18.2535H35.831V23.662H30.4225V18.2535Z" fill="white" fill-opacity="0.05"/>
<path d="M30.4225 12.169H35.831V17.5775H30.4225V12.169Z" fill="white" fill-opacity="0.05"/>
<path d="M36.507 18.2535H41.9155V23.662H36.507V18.2535Z" fill="white" fill-opacity="0.05"/>
<path d="M42.5915 24.338H48V29.7465H42.5915V24.338Z" fill="white" fill-opacity="0.05"/>
<path d="M30.4225 24.338H35.831V29.7465H30.4225V24.338Z" fill="white" fill-opacity="0.05"/>
<path d="M35.831 12.169V17.5775H30.4225V12.169H35.831Z" fill="white"/>
<path d="M41.9155 12.169V17.5775H36.507V12.169H41.9155Z" fill="white"/>
<path d="M42.5915 18.2535H48V23.662H42.5915V18.2535Z" fill="white" fill-opacity="0.05"/>
<path d="M0 24.338H5.40845V29.7465H0V24.338Z" fill="white" fill-opacity="0.05"/>
<path d="M0 18.2535H5.40845V23.662H0V18.2535Z" fill="white" fill-opacity="0.05"/>
<path d="M12.169 24.338H17.5775V29.7465H12.169V24.338Z" fill="white" fill-opacity="0.05"/>
<path d="M12.169 30.4225H17.5775V35.831H12.169V30.4225Z" fill="white" fill-opacity="0.05"/>
<path d="M36.507 24.338H41.9155V29.7465H36.507V24.338Z" fill="white" fill-opacity="0.05"/>
<path d="M0 30.4225H5.40845V35.831H0V30.4225Z" fill="white" fill-opacity="0.05"/>
<path d="M6.08451 30.4225H11.493V35.831H6.08451V30.4225Z" fill="white" fill-opacity="0.05"/>
<path d="M6.08451 24.338H11.493V29.7465H6.08451V24.338Z" fill="white" fill-opacity="0.05"/>
<path d="M18.2535 30.4225H23.662V35.831H18.2535V30.4225Z" fill="white" fill-opacity="0.05"/>
<path d="M24.338 30.4225H29.7465V35.831H24.338V30.4225Z" fill="white" fill-opacity="0.05"/>
<path d="M18.2535 24.338H23.662V29.7465H18.2535V24.338Z" fill="white" fill-opacity="0.05"/>
<path d="M24.338 24.338H29.7465V29.7465H24.338V24.338Z" fill="white" fill-opacity="0.05"/>
<path d="M30.4225 30.4225H35.831V35.831H30.4225V30.4225Z" fill="white" fill-opacity="0.05"/>
<path d="M36.507 30.4225H41.9155V35.831H36.507V30.4225Z" fill="white" fill-opacity="0.05"/>
<path d="M42.5915 30.4225H48V35.831H42.5915V30.4225Z" fill="white" fill-opacity="0.05"/>
<path d="M0 36.507H5.40845V41.9155H0V36.507Z" fill="white" fill-opacity="0.05"/>
<path d="M12.169 36.507H17.5775V41.9155H12.169V36.507Z" fill="white" fill-opacity="0.05"/>
<path d="M30.4225 36.507H35.831V41.9155H30.4225V36.507Z" fill="white" fill-opacity="0.05"/>
<path d="M36.507 36.507H41.9155V41.9155H36.507V36.507Z" fill="white" fill-opacity="0.05"/>
<path d="M42.5915 36.507H48V41.9155H42.5915V36.507Z" fill="white" fill-opacity="0.05"/>
<path d="M6.08451 42.5915H11.493V48H6.08451V42.5915Z" fill="white" fill-opacity="0.05"/>
<path d="M12.169 42.5915H17.5775V48H12.169V42.5915Z" fill="white" fill-opacity="0.05"/>
<path d="M18.2535 42.5915H23.662V48H18.2535V42.5915Z" fill="white" fill-opacity="0.05"/>
<path d="M24.338 42.5915H29.7465V48H24.338V42.5915Z" fill="white" fill-opacity="0.05"/>
<path d="M18.2535 36.507H23.662V41.9155H18.2535V36.507Z" fill="white" fill-opacity="0.05"/>
<path d="M30.4225 42.5915H35.831V48H30.4225V42.5915Z" fill="white" fill-opacity="0.05"/>
<path d="M36.507 42.5915H41.9155V48H36.507V42.5915Z" fill="white" fill-opacity="0.05"/>
<path d="M42.5915 42.5915H48V48H42.5915V42.5915Z" fill="white" fill-opacity="0.05"/>
<path d="M35.831 6.08451V11.493H30.4225V6.08451H35.831Z" fill="white"/>
<path d="M12.169 18.2535H17.5775V23.662H12.169V18.2535Z" fill="white"/>
<path d="M24.338 30.4225H29.7465V35.831H24.338V30.4225Z" fill="white"/>
<path d="M6.08451 36.507H11.493V41.9155H6.08451V36.507Z" fill="white"/>
<path d="M0 18.2535H5.40845V23.662H0V18.2535Z" fill="white"/>
<path d="M0 42.5915H5.40845V48H0V42.5915Z" fill="white"/>
<path d="M24.338 18.2535H29.7465V23.662H24.338V18.2535Z" fill="white"/>
<path d="M18.2535 24.338H23.662V29.7465H18.2535V24.338Z" fill="white"/>
<path d="M18.2535 18.2535H23.662V23.662H18.2535V18.2535Z" fill="white"/>
<path d="M24.338 24.338H29.7465V29.7465H24.338V24.338Z" fill="white"/>
<path d="M12.169 30.4225H17.5775V35.831H12.169V30.4225Z" fill="white"/>
<path d="M6.08451 18.2535H11.493V23.662H6.08451V18.2535Z" fill="white"/>
<path d="M24.338 36.507H29.7465V41.9155H24.338V36.507Z" fill="white"/>
<path d="M24.338 42.5915H29.7465V48H24.338V42.5915Z" fill="white"/>
</svg>
